<?xml version="1.0" standalone="no"?><!-- Generator: Adobe Fireworks CS6, Export SVG Extension by Aaron Beall (http://fireworks.abeall.com) . Version: 0.6.1  --><!DOCTYPE svg PUBLIC "-//W3C//DTD SVG 1.1//EN" "http://www.w3.org/Graphics/SVG/1.1/DTD/svg11.dtd"><svg id="Untitled-Seite%201" viewBox="0 0 626 116" style="background-color:#ffffff00" version="1.1"	xmlns="http://www.w3.org/2000/svg" xmlns:xlink="http://www.w3.org/1999/xlink" xml:space="preserve"	x="0px" y="0px" width="626px" height="116px">	<defs>		<linearGradient id="gradient1" x1="50%" y1="0%" x2="50%" y2="100%">			<stop stop-color="#4caec0" stop-opacity="1" offset="0%"/>			<stop stop-color="#0098b7" stop-opacity="1" offset="100%"/>		</linearGradient>	</defs>	<g id="Layer%201">		<path d="M 57.8091 115.6172 C 89.7358 115.6172 115.6182 89.7363 115.6182 57.8086 C 115.6182 25.8823 89.7358 0 57.8091 0 C 25.8818 0 0 25.8823 0 57.8086 C 0 89.7363 25.8818 115.6172 57.8091 115.6172 L 57.8091 115.6172 Z" fill="url(#gradient1)"/>		<path d="M 80.6118 54.8062 C 80.6118 65.9668 71.564 75.0137 60.4048 75.0137 C 49.2451 75.0137 40.1968 65.9668 40.1968 54.8062 C 40.1968 43.647 49.2451 34.6001 60.4048 34.6001 C 71.564 34.6001 80.6118 43.647 80.6118 54.8062 L 80.6118 54.8062 ZM 95.5098 54.8062 C 95.5098 35.4194 79.793 19.7012 60.4048 19.7012 C 44.1602 19.7012 30.5308 30.75 26.5259 45.7319 L 11.2095 53.2422 C 11.2095 53.2422 8.1567 54.7393 11.1982 56.2603 L 26.5391 63.9336 C 27.3462 66.9336 28.5308 69.7715 30.0552 72.3945 L 24.5771 88.416 C 24.5771 88.416 23.4771 91.6328 26.7031 90.5586 L 42.8521 85.1777 C 45.5142 86.7207 48.3931 87.9082 51.437 88.7129 L 58.9009 103.9336 C 58.9009 103.9336 60.397 106.9844 61.9199 103.9434 L 69.562 88.6641 C 84.501 84.6309 95.5098 71.0215 95.5098 54.8062 L 95.5098 54.8062 Z" fill="#ffffff"/>		<path d="M 472.0869 37.7451 L 477.584 37.7451 C 477.7275 37.7451 477.8438 37.6284 477.8438 37.4844 L 477.8438 29.4014 C 477.8438 29.2583 477.7275 29.1411 477.584 29.1411 L 472.0869 29.1411 C 471.9443 29.1411 471.8271 29.2583 471.8271 29.4014 L 471.8271 37.4844 C 471.8271 37.6284 471.9443 37.7451 472.0869 37.7451 ZM 573.0137 86.9102 C 574.0732 86.9102 575.3564 86.7754 576.8281 86.5098 C 578.29 86.2461 579.5498 85.8926 580.5742 85.4609 C 580.7246 85.3984 580.8086 85.2344 580.7744 85.0762 L 579.8271 80.7285 C 579.8047 80.6309 579.7432 80.5488 579.6553 80.502 C 579.6045 80.4727 579.5498 80.4609 579.4941 80.4609 C 579.4531 80.4609 579.4121 80.4668 579.3721 80.4824 C 578.7061 80.7383 577.9814 80.9453 577.2129 81.0996 C 576.4492 81.2539 575.7793 81.3301 575.2246 81.3301 C 573.7998 81.3301 572.6865 80.9258 571.9131 80.1289 C 571.1387 79.3301 570.7451 78.1973 570.7451 76.7695 L 570.7451 28.3989 C 570.7451 28.2124 570.5918 28.0601 570.4053 28.0601 L 565.0303 28.0601 C 564.8428 28.0601 564.6904 28.2124 564.6904 28.3989 L 564.6904 78.5879 C 564.6904 81.2012 565.4424 83.2637 566.9258 84.7188 C 568.4082 86.1738 570.4561 86.9102 573.0137 86.9102 ZM 406.7354 44.2329 C 406.6719 44.144 406.5684 44.0913 406.458 44.0913 L 396.498 44.0913 C 396.3486 44.0913 396.2168 44.188 396.1729 44.3301 L 386.2969 74.9453 L 375.6387 44.3184 C 375.5908 44.1831 375.4619 44.0913 375.3184 44.0913 L 364.4111 44.0913 C 364.2979 44.0913 364.1934 44.146 364.1299 44.2393 C 364.0654 44.333 364.0537 44.4512 364.0947 44.5552 L 381.084 87.5605 L 373.7529 109.7637 C 373.7529 109.7637 373.0225 111.9023 375.1641 111.1895 L 385.4121 107.7168 C 385.5527 107.6602 385.6631 107.4277 385.6631 107.4277 L 406.7793 44.543 C 406.8154 44.438 406.7988 44.3242 406.7354 44.2329 ZM 245.103 86.4355 L 255.6919 86.4355 C 255.8799 86.4355 256.0322 86.2832 256.0322 86.0957 L 256.001 61.1855 C 257.0659 58.9004 258.8462 57.1602 261.291 56.0151 C 263.7612 54.8569 266.6128 54.2422 269.7671 54.1899 C 269.9521 54.187 270.1011 54.0342 270.1011 53.8501 L 270.1011 44.208 C 270.1011 44.0444 269.9858 43.9053 269.8271 43.874 C 269.542 43.8184 269.2422 43.7891 268.9321 43.7891 L 267.627 43.7891 C 266.4878 43.7891 265.291 44.021 264.0688 44.4819 C 262.8589 44.9399 261.6489 45.606 260.4722 46.4614 C 259.2979 47.3149 258.189 48.3301 257.1758 49.4761 C 256.437 50.314 255.7632 51.2363 255.1641 52.23 L 255.1641 44.6812 C 255.1641 44.4922 255.0117 44.3413 254.8242 44.3413 L 245.103 44.3413 C 244.915 44.3413 244.7632 44.4922 244.7632 44.6812 L 244.7632 86.0957 C 244.7632 86.2832 244.915 86.4355 245.103 86.4355 ZM 288.4121 86.4355 L 299.8721 86.4355 C 300.0151 86.4355 300.1421 86.3477 300.1909 86.2129 L 315.4453 44.7983 C 315.4834 44.6943 315.4678 44.5771 315.4053 44.4863 C 315.3408 44.396 315.2373 44.3413 315.126 44.3413 L 305.168 44.3413 C 305.02 44.3413 304.8901 44.437 304.8447 44.5771 L 294.5781 76.3711 L 284.3892 44.5771 C 284.3438 44.437 284.2129 44.3413 284.0649 44.3413 L 273.1592 44.3413 C 273.0469 44.3413 272.9429 44.396 272.8789 44.4863 C 272.8159 44.5771 272.8008 44.6943 272.8389 44.7983 L 288.0928 86.2129 C 288.1421 86.3477 288.269 86.4355 288.4121 86.4355 ZM 472.166 86.4355 L 477.541 86.4355 C 477.7275 86.4355 477.8809 86.2832 477.8809 86.0957 L 477.8809 44.918 C 477.8809 44.73 477.7275 44.5791 477.541 44.5791 L 472.166 44.5791 C 471.9795 44.5791 471.8271 44.73 471.8271 44.918 L 471.8271 86.0957 C 471.8271 86.2832 471.9795 86.4355 472.166 86.4355 ZM 492.5557 86.4355 L 497.9297 86.4355 C 498.1182 86.4355 498.2705 86.2832 498.2705 86.0957 L 498.252 60.5977 C 499.3301 57.3623 501.2012 54.7871 503.8164 52.9409 C 506.4346 51.0933 509.5635 50.104 513.1152 50.002 C 513.2979 49.9971 513.4443 49.8452 513.4443 49.6621 L 513.4443 44.7622 C 513.4443 44.5991 513.3301 44.46 513.1719 44.4282 C 512.8848 44.3691 512.5166 44.3413 512.0781 44.3413 C 509.0703 44.3413 506.2119 45.2661 503.5859 47.0903 C 501.3135 48.6641 499.4238 50.7871 497.9531 53.4092 L 497.9531 44.918 C 497.9531 44.73 497.8008 44.5791 497.6143 44.5791 L 492.5557 44.5791 C 492.3682 44.5791 492.2158 44.73 492.2158 44.918 L 492.2158 86.0957 C 492.2158 86.2832 492.3682 86.4355 492.5557 86.4355 ZM 439.9189 86.9102 C 442.0957 86.9102 444.3447 86.6133 446.6025 86.0313 C 448.8623 85.4453 451.0293 84.584 453.0439 83.4688 C 455.0703 82.3496 456.9287 80.9609 458.5732 79.3438 C 460.2295 77.7129 461.5303 75.8027 462.4414 73.6641 C 462.5098 73.5 462.4434 73.3105 462.2842 73.2285 L 457.7012 70.8555 C 457.6514 70.832 457.5977 70.8184 457.5439 70.8184 C 457.5078 70.8184 457.4717 70.8242 457.4365 70.8359 C 457.3496 70.8633 457.2793 70.9277 457.2383 71.0098 C 456.3643 72.8086 455.2686 74.3594 453.9863 75.6172 C 452.6973 76.8809 451.2725 77.9551 449.751 78.8027 C 448.2314 79.6543 446.6387 80.2813 445.0166 80.668 C 443.3906 81.0547 441.7832 81.252 440.2363 81.252 C 437.2998 81.252 434.5459 80.6113 432.0518 79.3516 C 429.5439 78.0859 427.3447 76.3574 425.5166 74.2168 C 423.6797 72.0684 422.2109 69.5645 421.1504 66.7695 C 420.0898 63.9785 419.5518 61.0137 419.5518 57.9609 C 419.5518 55.1611 419.999 52.3643 420.8789 49.6479 C 421.7598 46.9312 423.082 44.4541 424.8135 42.2852 C 426.5381 40.1211 428.6973 38.3433 431.2275 37.001 C 433.7471 35.6621 436.6982 34.9854 439.998 34.9854 C 441.4941 34.9854 443.0381 35.1553 444.5889 35.4912 C 446.1348 35.8262 447.6455 36.3872 449.083 37.1563 C 450.5225 37.9282 451.8936 38.9463 453.1563 40.1831 C 454.4121 41.4131 455.4941 42.9512 456.3682 44.7534 C 456.4102 44.8384 456.4873 44.9033 456.5791 44.9302 L 456.6738 44.9434 C 456.7373 44.9434 456.7988 44.9263 456.8525 44.894 L 461.2012 42.2041 C 461.3467 42.1133 461.4033 41.9292 461.3311 41.772 C 459.623 38.0942 456.9346 35.0674 453.3398 32.7773 C 449.7432 30.4854 445.3604 29.3252 440.3135 29.3252 C 436.0635 29.3252 432.2109 30.1753 428.8613 31.8511 C 425.5137 33.5229 422.6602 35.7183 420.3779 38.375 C 418.0967 41.0273 416.334 44.0791 415.1367 47.4531 C 413.9453 50.8203 413.3398 54.25 413.3398 57.6445 C 413.3398 61.25 413.999 64.8398 415.2979 68.3145 C 416.5957 71.7852 418.4365 74.9316 420.7705 77.6621 C 423.1045 80.3965 425.9297 82.6445 429.1699 84.3438 C 432.418 86.0469 436.0342 86.9102 439.9189 86.9102 ZM 165.1211 87.0684 C 167.8691 87.0684 170.541 86.7598 173.0649 86.1484 C 175.5908 85.541 177.8618 84.5527 179.8149 83.2148 C 181.7759 81.873 183.354 80.0898 184.5068 77.918 C 185.6611 75.7422 186.2471 73.0957 186.2471 70.0508 C 186.2471 67.4316 185.8101 65.1895 184.9492 63.3867 C 184.0879 61.584 182.8472 60.0137 181.2607 58.7227 C 179.686 57.4414 177.7393 56.3604 175.4751 55.5063 C 173.2358 54.6641 170.7129 53.8643 167.9697 53.125 C 165.8872 52.605 164.0171 52.1011 162.4111 51.6284 C 160.8281 51.1592 159.5088 50.6362 158.4878 50.0752 C 157.4819 49.522 156.709 48.8784 156.189 48.1572 C 155.6812 47.4561 155.4219 46.5522 155.4219 45.4722 C 155.4219 43.5659 156.103 42.1294 157.501 41.0811 C 158.9092 40.0239 161.1001 39.4902 164.0142 39.4902 C 165.6602 39.4902 167.3081 39.6992 168.9092 40.1113 C 170.52 40.5283 172.0322 41.041 173.4019 41.6362 C 174.77 42.228 175.9502 42.8442 176.9092 43.4644 C 177.8589 44.082 178.519 44.5732 178.8701 44.9233 C 178.9341 44.9863 179.02 45.021 179.1099 45.021 L 179.1592 45.0181 C 179.2651 45.002 179.3569 44.938 179.4092 44.8442 L 184.23 35.9932 C 184.314 35.8403 184.2671 35.647 184.1221 35.5483 C 181.6309 33.853 178.6812 32.3652 175.355 31.126 C 172.0132 29.8794 168.3032 29.2461 164.3301 29.2461 C 161.4668 29.2461 158.748 29.6372 156.2471 30.4082 C 153.7422 31.1812 151.5107 32.3311 149.6182 33.8252 C 147.7158 35.3242 146.207 37.2271 145.1338 39.4771 C 144.063 41.7241 143.52 44.3252 143.52 47.2114 C 143.52 49.4082 143.8608 51.3291 144.5352 52.915 C 145.21 54.5063 146.2358 55.9302 147.585 57.1465 C 148.9219 58.3496 150.6138 59.4063 152.6152 60.2871 C 154.5938 61.1563 156.9639 61.9746 159.6528 62.7129 C 161.8638 63.3457 163.8672 63.9258 165.6572 64.4531 C 167.4209 64.9688 168.9438 65.5469 170.1841 66.166 C 171.397 66.7715 172.3428 67.4863 172.9971 68.291 C 173.6279 69.0684 173.9492 70.0352 173.9492 71.1582 C 173.9492 74.8125 171.1118 76.5879 165.2788 76.5879 C 163.1548 76.5879 161.0562 76.3242 159.04 75.8086 C 157.0161 75.2891 155.147 74.6445 153.4849 73.8926 C 151.8218 73.1387 150.3589 72.375 149.1372 71.6211 C 147.9277 70.877 147.085 70.2656 146.6309 69.8105 C 146.5669 69.7461 146.48 69.7109 146.3901 69.7109 L 146.3379 69.7148 C 146.231 69.7305 146.1372 69.7988 146.0879 69.8965 L 141.2661 79.3027 C 141.188 79.4551 141.2329 79.6387 141.3711 79.7344 C 144.646 82.0586 148.4019 83.8828 152.5332 85.1563 C 156.6592 86.4258 160.894 87.0684 165.1211 87.0684 ZM 207.3252 87.2246 C 210.8389 87.2246 214.106 86.4961 217.0371 85.0566 C 219.6938 83.7539 221.9419 81.834 223.731 79.3477 L 223.8999 81.7168 C 224.1221 83.334 224.873 84.6191 226.1309 85.541 C 227.3711 86.4492 228.9951 86.9102 230.9561 86.9102 C 231.542 86.9102 232.1958 86.8828 232.918 86.832 C 233.6392 86.7754 234.543 86.6406 235.606 86.4297 C 235.7661 86.3965 235.8799 86.2578 235.8799 86.0957 L 235.8799 77.0859 C 235.8799 76.9063 235.7402 76.7578 235.5601 76.7461 C 234.7661 76.6992 234.1948 76.4766 233.8638 76.0781 C 233.5239 75.6699 233.3511 74.9453 233.3511 73.9238 L 233.3511 44.6812 C 233.3511 44.4922 233.1992 44.3413 233.0107 44.3413 L 222.4189 44.3413 C 222.231 44.3413 222.0791 44.4922 222.0791 44.6812 L 222.0791 70.291 C 220.9038 72.7168 219.375 74.5488 217.5332 75.7344 C 215.6729 76.9297 213.728 77.5371 211.75 77.5371 C 207.3521 77.5371 205.2139 74.5195 205.2139 68.3145 L 205.2139 44.6812 C 205.2139 44.4922 205.062 44.3413 204.874 44.3413 L 194.2842 44.3413 C 194.0962 44.3413 193.9438 44.4922 193.9438 44.6812 L 193.9438 70.6055 C 193.9438 76.0332 195.0859 80.2012 197.3389 82.9902 C 199.6079 85.7988 202.9678 87.2246 207.3252 87.2246 ZM 360.5342 57.0488 C 359.5479 54.439 358.0869 52.1123 356.1934 50.1382 C 354.2979 48.1631 351.9746 46.5693 349.2861 45.397 C 346.5918 44.2261 343.502 43.6313 340.1016 43.6313 C 336.7012 43.6313 333.585 44.2261 330.8398 45.396 C 328.0967 46.5659 325.7334 48.1753 323.8135 50.1763 C 321.8916 52.1743 320.4063 54.5273 319.3936 57.166 C 318.3828 59.7969 317.8701 62.6426 317.8701 65.627 C 317.8701 68.5039 318.3955 71.2832 319.4336 73.8926 C 320.4736 76.5059 321.9736 78.8301 323.8916 80.8008 C 325.8115 82.7734 328.1641 84.3555 330.8799 85.502 C 333.5996 86.6445 336.6758 87.2246 340.0234 87.2246 C 344.6992 87.2246 348.7871 86.1836 352.1719 84.1348 C 355.5576 82.082 358.0615 79.4141 359.6133 76.207 C 359.6572 76.1152 359.6582 76.0098 359.6172 75.918 C 359.5752 75.8281 359.4951 75.7578 359.3984 75.7305 L 350.3086 73.2031 C 350.2793 73.1934 350.248 73.1895 350.2178 73.1895 C 350.083 73.1895 349.9561 73.2715 349.9033 73.4023 C 349.251 75.0039 348.0127 76.3164 346.2207 77.3008 C 344.4063 78.2969 342.4541 78.8027 340.417 78.8027 C 339.0947 78.8027 337.8057 78.5684 336.5859 78.1113 C 335.3633 77.6523 334.2559 76.9824 333.2939 76.1211 C 332.3291 75.2578 331.5313 74.2012 330.9219 72.9805 C 330.3604 71.8594 329.9863 70.5645 329.8105 69.127 L 361.4424 69.127 C 361.5967 69.127 361.7334 69.0195 361.7705 68.8691 C 361.8809 68.4277 361.9492 67.8887 361.9775 67.2207 C 362.0039 66.584 362.0166 65.9199 362.0166 65.2305 C 362.0166 62.4102 361.5176 59.6582 360.5342 57.0488 ZM 329.6426 61.5703 C 329.7734 60.2305 330.1104 58.9883 330.6475 57.8691 C 331.2324 56.6489 331.9922 55.5933 332.9063 54.73 C 333.8164 53.8701 334.8838 53.188 336.0791 52.7031 C 337.2705 52.2212 338.5713 51.978 339.9434 51.978 C 342.7383 51.978 345.1475 52.8921 347.1025 54.6919 C 348.9746 56.4224 350.082 58.7344 350.3955 61.5703 L 329.6426 61.5703 ZM 537.6836 87.2246 C 539.6553 87.2246 541.5869 86.9688 543.4268 86.4629 C 545.2686 85.9551 546.9746 85.2246 548.4922 84.291 C 550.0127 83.3594 551.3545 82.25 552.4814 80.9863 C 553.6045 79.7324 554.4775 78.3301 555.0742 76.8145 C 555.1094 76.7266 555.1045 76.627 555.0635 76.541 C 555.0205 76.4551 554.9463 76.3906 554.8545 76.3633 L 549.5586 74.7832 L 549.4619 74.7715 C 549.3203 74.7715 549.1855 74.8594 549.1396 75.002 C 548.8389 75.9023 548.3047 76.7637 547.5518 77.5645 C 546.7881 78.3809 545.8584 79.1172 544.7832 79.7578 C 543.7051 80.4004 542.5225 80.9043 541.2656 81.2637 C 540.0107 81.623 538.7256 81.8047 537.4492 81.8047 C 535.4551 81.8047 533.5508 81.377 531.7852 80.5352 C 530.0146 79.6855 528.4414 78.5156 527.1104 77.0566 C 525.7744 75.5918 524.7061 73.834 523.9336 71.8262 C 523.1621 69.8184 522.7705 67.6543 522.7705 65.3906 C 522.7705 63.0664 523.1504 60.9023 523.8955 58.9492 C 524.6387 57.002 525.6777 55.2974 526.9883 53.8823 C 528.2959 52.4741 529.8545 51.3433 531.624 50.521 C 533.3916 49.7041 535.3252 49.2881 537.3682 49.2881 C 539.8252 49.2881 542.0947 49.873 544.1162 51.0239 C 546.1289 52.1714 547.7217 53.7881 548.8477 55.832 C 548.9082 55.9409 549.0244 56.0073 549.1445 56.0073 C 549.1787 56.0073 549.2139 56.0034 549.248 55.9912 L 554.4639 54.333 C 554.5586 54.3042 554.6357 54.2344 554.6748 54.1431 C 554.7129 54.0522 554.71 53.9482 554.666 53.8594 C 553.1709 50.8101 550.9189 48.356 547.9775 46.564 C 545.0371 44.7749 541.5469 43.8682 537.6045 43.8682 C 534.5156 43.8682 531.6523 44.4351 529.0918 45.5562 C 526.5332 46.6753 524.3018 48.231 522.46 50.1792 C 520.6162 52.1313 519.1699 54.4409 518.1641 57.0469 C 517.1504 59.6563 516.6377 62.4629 516.6377 65.3906 C 516.6377 68.3711 517.165 71.2051 518.2031 73.8125 C 519.2412 76.4219 520.7129 78.7578 522.5781 80.7559 C 524.4473 82.7578 526.6914 84.3535 529.248 85.498 C 531.8115 86.6426 534.6494 87.2246 537.6836 87.2246 ZM 624.0713 57.124 C 623.0615 54.5732 621.6309 52.2773 619.8174 50.3003 C 618.002 48.3271 615.7988 46.7451 613.2656 45.5972 C 610.7295 44.4482 607.9043 43.8682 604.8652 43.8682 C 601.8818 43.8682 599.0693 44.4482 596.5068 45.5972 C 593.9482 46.7451 591.7168 48.313 589.8789 50.2583 C 588.04 52.2031 586.5811 54.5 585.543 57.0811 C 584.5029 59.668 583.9775 62.4629 583.9775 65.3906 C 583.9775 68.3691 584.5029 71.2051 585.541 73.8125 C 586.5811 76.4238 588.0518 78.7617 589.915 80.7559 C 591.7842 82.7578 594.0146 84.3516 596.5449 85.498 C 599.082 86.6426 601.9082 87.2246 604.9443 87.2246 C 606.9648 87.2246 608.9365 86.9688 610.8018 86.4629 C 612.6689 85.957 614.4004 85.2246 615.9482 84.293 C 617.4922 83.3613 618.874 82.252 620.0527 80.9922 C 621.2344 79.7305 622.1592 78.3008 622.8047 76.7422 C 622.8418 76.6523 622.8389 76.5488 622.7949 76.4629 C 622.7529 76.375 622.6738 76.3086 622.5801 76.2832 L 617.917 75.0195 L 617.8281 75.0078 C 617.6943 75.0078 617.5703 75.0859 617.5156 75.2129 C 617.0566 76.2773 616.3887 77.2676 615.5303 78.1523 C 614.6572 79.0488 613.6709 79.8145 612.5996 80.4258 C 611.5225 81.043 610.3262 81.5352 609.042 81.8965 C 607.7627 82.2539 606.4648 82.4355 605.1816 82.4355 C 603.2314 82.4355 601.375 82.0586 599.665 81.3164 C 597.9502 80.5781 596.4053 79.5234 595.0693 78.1895 C 593.7344 76.8555 592.627 75.2539 591.7793 73.4238 C 590.9795 71.709 590.4814 69.8105 590.2979 67.7832 L 625.1777 67.7832 C 625.3281 67.7832 625.458 67.6875 625.5039 67.5469 C 625.5654 67.3457 625.5957 67.0273 625.5957 66.5723 L 625.5957 65.3105 C 625.5957 62.4375 625.083 59.6816 624.0713 57.124 ZM 590.2168 62.9922 C 590.4004 61.0156 590.8721 59.1563 591.6221 57.4648 C 592.4141 55.6753 593.4814 54.1133 594.7891 52.8271 C 596.0947 51.5503 597.6406 50.5361 599.3818 49.8184 C 601.124 49.1011 602.9961 48.7373 604.9443 48.7373 C 606.8896 48.7373 608.7471 49.1011 610.4629 49.8149 C 612.1777 50.5332 613.7119 51.5474 615.0205 52.8271 C 616.3291 54.1133 617.4238 55.6631 618.2725 57.4355 C 619.0693 59.1035 619.5674 60.9707 619.751 62.9922 L 590.2168 62.9922 Z" fill="#58585a"/>	</g></svg>